<svg xmlns="http://www.w3.org/2000/svg" width="180" height="180" viewBox="0 0 180 180">
  <defs>
    <linearGradient id="filmGradient" x1="0%" y1="0%" x2="100%" y2="100%">
      <stop offset="0%" style="stop-color:#dc2626;stop-opacity:1" />
      <stop offset="100%" style="stop-color:#991b1b;stop-opacity:1" />
    </linearGradient>
  </defs>
  
  <!-- Background -->
  <rect width="180" height="180" fill="#000000" rx="40"/>
  
  <!-- Clapperboard - scaled up and centered -->
  <g transform="translate(30, 40) scale(1.2)">
    <!-- Top striped section -->
    <rect x="0" y="0" width="100" height="25" fill="url(#filmGradient)" rx="4"/>
    <rect x="5" y="0" width="15" height="25" fill="#ffffff" opacity="0.9"/>
    <rect x="25" y="0" width="15" height="25" fill="#ffffff" opacity="0.9"/>
    <rect x="45" y="0" width="15" height="25" fill="#ffffff" opacity="0.9"/>
    <rect x="65" y="0" width="15" height="25" fill="#ffffff" opacity="0.9"/>
    <rect x="85" y="0" width="15" height="25" fill="#ffffff" opacity="0.9"/>
    
    <!-- Bottom board -->
    <rect x="0" y="25" width="100" height="60" fill="#1a1a1a" rx="4"/>
    <rect x="0" y="25" width="100" height="60" stroke="url(#filmGradient)" stroke-width="3" fill="none" rx="4"/>
    
    <!-- Details on board -->
    <rect x="10" y="35" width="80" height="6" fill="#dc2626" opacity="0.6" rx="2"/>
    <rect x="10" y="48" width="60" height="6" fill="#dc2626" opacity="0.4" rx="2"/>
    <rect x="10" y="61" width="70" height="6" fill="#dc2626" opacity="0.3" rx="2"/>
    <rect x="10" y="74" width="55" height="4" fill="#dc2626" opacity="0.2" rx="1"/>
  </g>
</svg>

